ply
format ascii 1.0
comment Created by Blender 2.73 (sub 0) - www.blender.org, source file: ''
element vertex 24
property float x
property float y
property float z
property float nx
property float ny
property float nz
property float s
property float t
element face 6
property list uchar uint vertex_indices
end_header
1.000000 1.000000 -1.000000 0.000000 0.000000 -1.000000 0.499940 0.499780
1.000000 -1.000000 -1.000000 0.000000 0.000000 -1.000000 0.250124 0.499780
-1.000000 -1.000000 -1.000000 0.000000 0.000000 -1.000000 0.250124 0.249963
-1.000000 1.000000 -1.000000 0.000000 0.000000 -1.000000 0.499940 0.249963
1.000000 0.999999 1.000000 0.000000 -0.000000 1.000000 0.249824 0.499780
-1.000000 1.000000 1.000000 0.000000 -0.000000 1.000000 0.000008 0.499780
-1.000000 -1.000000 1.000000 0.000000 -0.000000 1.000000 0.000008 0.249963
0.999999 -1.000001 1.000000 0.000000 -0.000000 1.000000 0.249824 0.249963
1.000000 1.000000 -1.000000 1.000000 -0.000000 0.000000 0.249824 0.500080
1.000000 0.999999 1.000000 1.000000 -0.000000 0.000000 0.249824 0.749896
0.999999 -1.000001 1.000000 1.000000 -0.000000 0.000000 0.000008 0.749896
1.000000 -1.000000 -1.000000 1.000000 -0.000000 0.000000 0.000008 0.500080
1.000000 -1.000000 -1.000000 -0.000000 -1.000000 -0.000000 0.249824 0.750195
0.999999 -1.000001 1.000000 -0.000000 -1.000000 -0.000000 0.249824 1.000012
-1.000000 -1.000000 1.000000 -0.000000 -1.000000 -0.000000 0.000008 1.000012
-1.000000 -1.000000 -1.000000 -0.000000 -1.000000 -0.000000 0.000008 0.750195
-1.000000 -1.000000 -1.000000 -1.000000 0.000000 -0.000000 0.500240 0.499780
-1.000000 -1.000000 1.000000 -1.000000 0.000000 -0.000000 0.500240 0.249963
-1.000000 1.000000 1.000000 -1.000000 0.000000 -0.000000 0.750056 0.249963
-1.000000 1.000000 -1.000000 -1.000000 0.000000 -0.000000 0.750056 0.499780
1.000000 0.999999 1.000000 0.000000 1.000000 0.000000 0.499940 0.500080
1.000000 1.000000 -1.000000 0.000000 1.000000 0.000000 0.499940 0.749896
-1.000000 1.000000 -1.000000 0.000000 1.000000 0.000000 0.250124 0.749896
-1.000000 1.000000 1.000000 0.000000 1.000000 0.000000 0.250124 0.500080
4 0 1 2 3
4 4 5 6 7
4 8 9 10 11
4 12 13 14 15
4 16 17 18 19
4 20 21 22 23
