ply
format ascii 1.0
comment Created by Blender 2.73 (sub 0) - www.blender.org, source file: 'target.blend'
element vertex 4
property float x
property float y
property float z
property float nx
property float ny
property float nz
property float s
property float t
element face 1
property list uchar uint vertex_indices
end_header
-192.634140 -191.651382 -1.986043 0.000000 0.000000 1.000000 0.000100 0.000100
191.179092 -191.651382 -1.986043 0.000000 0.000000 1.000000 0.999900 0.000100
191.179092 192.161850 -1.986043 0.000000 0.000000 1.000000 0.999900 0.999900
-192.634140 192.161850 -1.986043 0.000000 0.000000 1.000000 0.000100 0.999900
4 0 1 2 3
