ply
format ascii 1.0
comment Created by Blender 2.73 (sub 0) - www.blender.org, source file: 'skybox.blend'
element vertex 24
property float x
property float y
property float z
property float nx
property float ny
property float nz
property float s
property float t
element face 6
property list uchar uint vertex_indices
end_header
532.652344 532.652344 -532.652344 0.000000 -0.000000 1.000000 0.500000 0.333395
-532.652100 532.652344 -532.652344 0.000000 -0.000000 1.000000 0.250043 0.333395
-532.652344 -532.652100 -532.652344 0.000000 -0.000000 1.000000 0.250043 0.000092
532.652344 -532.652344 -532.652344 0.000000 -0.000000 1.000000 0.500000 0.000092
532.652344 532.651855 532.652344 0.000000 0.000000 -1.000000 0.500000 0.666698
532.652100 -532.652832 532.652344 0.000000 0.000000 -1.000000 0.500000 1.000001
-532.652344 -532.652100 532.652344 0.000000 0.000000 -1.000000 0.250043 1.000001
-532.652344 532.652344 532.652344 0.000000 0.000000 -1.000000 0.250043 0.666698
532.652344 532.652344 -532.652344 -1.000000 0.000000 -0.000000 0.500000 0.333395
532.652344 -532.652344 -532.652344 -1.000000 0.000000 -0.000000 0.749957 0.333395
532.652100 -532.652832 532.652344 -1.000000 0.000000 -0.000000 0.749957 0.666698
532.652344 532.651855 532.652344 -1.000000 0.000000 -0.000000 0.500000 0.666698
532.652344 -532.652344 -532.652344 0.000000 1.000000 0.000000 0.749957 0.333395
-532.652344 -532.652100 -532.652344 0.000000 1.000000 0.000000 0.999913 0.333395
-532.652344 -532.652100 532.652344 0.000000 1.000000 0.000000 0.999913 0.666699
532.652100 -532.652832 532.652344 0.000000 1.000000 0.000000 0.749957 0.666698
-532.652344 -532.652100 -532.652344 1.000000 -0.000000 0.000000 0.000087 0.333395
-532.652100 532.652344 -532.652344 1.000000 -0.000000 0.000000 0.250043 0.333395
-532.652344 532.652344 532.652344 1.000000 -0.000000 0.000000 0.250043 0.666698
-532.652344 -532.652100 532.652344 1.000000 -0.000000 0.000000 0.000087 0.666698
-532.652100 532.652344 -532.652344 -0.000000 -1.000000 -0.000000 0.250043 0.333395
532.652344 532.652344 -532.652344 -0.000000 -1.000000 -0.000000 0.500000 0.333395
532.652344 532.651855 532.652344 -0.000000 -1.000000 -0.000000 0.500000 0.666698
-532.652344 532.652344 532.652344 -0.000000 -1.000000 -0.000000 0.250043 0.666698
4 0 1 2 3
4 4 5 6 7
4 8 9 10 11
4 12 13 14 15
4 16 17 18 19
4 20 21 22 23
