ply
format ascii 1.0
comment Created by Blender 2.73 (sub 0) - www.blender.org, source file: 'target.blend'
element vertex 362
property float x
property float y
property float z
property float nx
property float ny
property float nz
property float s
property float t
element face 138
property list uchar uint vertex_indices
end_header
-0.924166 0.288022 -1.051193 0.000000 -0.927637 -0.373484 0.000000 0.000000
-0.924166 0.612168 -1.856287 0.000000 -0.927637 -0.373484 0.000000 0.000000
-0.710718 0.612168 -1.856287 0.000000 -0.927637 -0.373484 0.000000 0.000000
-0.710718 0.288022 -1.051193 0.000000 -0.927637 -0.373484 0.000000 0.000000
-0.924166 0.341365 -1.025040 0.000000 0.927637 0.373484 0.245963 0.999950
-0.710718 0.341365 -1.025040 0.000000 0.927637 0.373484 0.000050 0.999950
-0.710718 0.665511 -1.830135 0.000000 0.927637 0.373484 0.000050 0.000050
-0.924166 0.665511 -1.830135 0.000000 0.927637 0.373484 0.245963 0.000050
-0.710718 0.612168 -1.856287 0.000000 0.440216 -0.897892 0.000000 0.000000
-0.924166 0.612168 -1.856287 0.000000 0.440216 -0.897892 0.000000 0.000000
-0.924166 0.665511 -1.830135 0.000000 0.440216 -0.897892 0.000000 0.000000
-0.710718 0.665511 -1.830135 0.000000 0.440216 -0.897892 0.000000 0.000000
-0.710718 0.288022 -1.051193 1.000000 0.000000 0.000000 0.000000 0.000000
-0.710718 0.612168 -1.856287 1.000000 0.000000 0.000000 0.000000 0.000000
-0.710718 0.665511 -1.830135 1.000000 0.000000 0.000000 0.000000 0.000000
-0.710718 0.341365 -1.025040 1.000000 0.000000 0.000000 0.000000 0.000000
-0.924166 0.288022 -1.051193 0.000000 -0.440216 0.897892 0.000000 0.000000
-0.710718 0.288022 -1.051193 0.000000 -0.440216 0.897892 0.000000 0.000000
-0.710718 0.341365 -1.025040 0.000000 -0.440216 0.897892 0.000000 0.000000
-0.924166 0.341365 -1.025040 0.000000 -0.440216 0.897892 0.000000 0.000000
-0.924166 0.612168 -1.856287 -1.000000 -0.000000 -0.000000 0.067953 0.000026
-0.924166 0.288022 -1.051193 -1.000000 -0.000000 -0.000000 0.067952 0.995001
-0.924166 0.341365 -1.025040 -1.000000 -0.000000 -0.000000 0.000026 0.999974
-0.924166 0.665511 -1.830135 -1.000000 -0.000000 -0.000000 0.000026 0.004999
0.729924 0.288022 -1.051193 0.000000 -0.927637 -0.373484 0.000000 0.000000
0.729924 0.612168 -1.856287 0.000000 -0.927637 -0.373484 0.000000 0.000000
0.943373 0.612168 -1.856287 0.000000 -0.927637 -0.373484 0.000000 0.000000
0.943373 0.288022 -1.051193 0.000000 -0.927637 -0.373484 0.000000 0.000000
0.729924 0.341365 -1.025040 0.000000 0.927637 0.373484 0.245963 0.999950
0.943373 0.341365 -1.025040 0.000000 0.927637 0.373484 0.000050 0.999950
0.943373 0.665511 -1.830135 0.000000 0.927637 0.373484 0.000050 0.000050
0.729924 0.665511 -1.830135 0.000000 0.927637 0.373484 0.245963 0.000050
0.943373 0.612168 -1.856287 0.000000 0.440216 -0.897892 0.000000 0.000000
0.729924 0.612168 -1.856287 0.000000 0.440216 -0.897892 0.000000 0.000000
0.729924 0.665511 -1.830135 0.000000 0.440216 -0.897892 0.000000 0.000000
0.943373 0.665511 -1.830135 0.000000 0.440216 -0.897892 0.000000 0.000000
0.943373 0.288022 -1.051193 1.000000 0.000000 0.000000 0.000000 0.000000
0.943373 0.612168 -1.856287 1.000000 0.000000 0.000000 0.000000 0.000000
0.943373 0.665511 -1.830135 1.000000 0.000000 0.000000 0.000000 0.000000
0.943373 0.341365 -1.025040 1.000000 0.000000 0.000000 0.000000 0.000000
0.729924 0.288022 -1.051193 0.000000 -0.440216 0.897892 0.000000 0.000000
0.943373 0.288022 -1.051193 0.000000 -0.440216 0.897892 0.000000 0.000000
0.943373 0.341365 -1.025040 0.000000 -0.440216 0.897892 0.000000 0.000000
0.729924 0.341365 -1.025040 0.000000 -0.440216 0.897892 0.000000 0.000000
0.729924 0.612168 -1.856287 -1.000000 -0.000000 -0.000000 0.000000 0.000000
0.729924 0.288022 -1.051193 -1.000000 -0.000000 -0.000000 0.000000 0.000000
0.729924 0.341365 -1.025040 -1.000000 -0.000000 -0.000000 0.000000 0.000000
0.729924 0.665511 -1.830135 -1.000000 -0.000000 -0.000000 0.000000 0.000000
-0.924166 -0.014834 -1.051193 0.000000 0.927637 -0.373484 0.245963 0.999950
-0.710718 -0.014834 -1.051193 0.000000 0.927637 -0.373484 0.000050 0.999950
-0.710718 -0.338980 -1.856287 0.000000 0.927637 -0.373484 0.000050 0.000050
-0.924166 -0.338980 -1.856287 0.000000 0.927637 -0.373484 0.245963 0.000050
-0.924166 -0.068178 -1.025040 0.000000 -0.927637 0.373484 0.000050 0.999950
-0.924166 -0.392324 -1.830135 0.000000 -0.927637 0.373484 0.000050 0.000050
-0.710718 -0.392324 -1.830135 0.000000 -0.927637 0.373484 0.245963 0.000050
-0.710718 -0.068178 -1.025040 0.000000 -0.927637 0.373484 0.245963 0.999950
-0.710718 -0.338980 -1.856287 0.000000 -0.440216 -0.897892 0.000000 0.000000
-0.710718 -0.392324 -1.830135 0.000000 -0.440216 -0.897892 0.000000 1.000000
-0.924166 -0.392324 -1.830135 0.000000 -0.440216 -0.897892 1.000000 1.000000
-0.924166 -0.338980 -1.856287 0.000000 -0.440216 -0.897892 1.000000 0.000000
-0.710718 -0.014834 -1.051193 1.000000 0.000000 0.000000 0.067952 0.995001
-0.710718 -0.068178 -1.025040 1.000000 0.000000 0.000000 0.000026 0.999974
-0.710718 -0.392324 -1.830135 1.000000 0.000000 0.000000 0.000026 0.004999
-0.710718 -0.338980 -1.856287 1.000000 0.000000 0.000000 0.067953 0.000026
-0.924166 -0.014834 -1.051193 0.000000 0.440216 0.897892 0.000000 0.000000
-0.924166 -0.068178 -1.025040 0.000000 0.440216 0.897892 0.000000 1.000000
-0.710718 -0.068178 -1.025040 0.000000 0.440216 0.897892 1.000000 1.000000
-0.710718 -0.014834 -1.051193 0.000000 0.440216 0.897892 1.000000 0.000000
-0.924166 -0.338980 -1.856287 -1.000000 0.000000 0.000000 0.000026 0.000026
-0.924166 -0.392324 -1.830135 -1.000000 0.000000 0.000000 0.067953 0.004999
-0.924166 -0.068178 -1.025040 -1.000000 0.000000 0.000000 0.067953 0.999974
-0.924166 -0.014834 -1.051193 -1.000000 0.000000 0.000000 0.000026 0.995001
0.729924 -0.014834 -1.051193 0.000000 0.927637 -0.373484 0.245963 0.999950
0.943373 -0.014834 -1.051193 0.000000 0.927637 -0.373484 0.000050 0.999950
0.943373 -0.338980 -1.856287 0.000000 0.927637 -0.373484 0.000050 0.000050
0.729924 -0.338980 -1.856287 0.000000 0.927637 -0.373484 0.245963 0.000050
0.729924 -0.068178 -1.025040 0.000000 -0.927637 0.373484 0.000050 0.999950
0.729924 -0.392324 -1.830135 0.000000 -0.927637 0.373484 0.000050 0.000050
0.943373 -0.392324 -1.830135 0.000000 -0.927637 0.373484 0.245963 0.000050
0.943373 -0.068178 -1.025040 0.000000 -0.927637 0.373484 0.245963 0.999950
0.943373 -0.338980 -1.856287 0.000000 -0.440216 -0.897892 0.000000 0.000000
0.943373 -0.392324 -1.830135 0.000000 -0.440216 -0.897892 0.000000 1.000000
0.729924 -0.392324 -1.830135 0.000000 -0.440216 -0.897892 1.000000 1.000000
0.729924 -0.338980 -1.856287 0.000000 -0.440216 -0.897892 1.000000 0.000000
0.943373 -0.014834 -1.051193 1.000000 0.000000 0.000000 0.067952 0.995001
0.943373 -0.068178 -1.025040 1.000000 0.000000 0.000000 0.000026 0.999974
0.943373 -0.392324 -1.830135 1.000000 0.000000 0.000000 0.000026 0.004999
0.943373 -0.338980 -1.856287 1.000000 0.000000 0.000000 0.067953 0.000026
0.729924 -0.014834 -1.051193 0.000000 0.440216 0.897892 0.000000 0.000000
0.729924 -0.068178 -1.025040 0.000000 0.440216 0.897892 0.000000 1.000000
0.943373 -0.068178 -1.025040 0.000000 0.440216 0.897892 1.000000 1.000000
0.943373 -0.014834 -1.051193 0.000000 0.440216 0.897892 1.000000 0.000000
0.729924 -0.338980 -1.856287 -1.000000 0.000000 0.000000 0.000000 0.000000
0.729924 -0.392324 -1.830135 -1.000000 0.000000 0.000000 0.000000 1.000000
0.729924 -0.068178 -1.025040 -1.000000 0.000000 0.000000 1.000000 1.000000
0.729924 -0.014834 -1.051193 -1.000000 0.000000 0.000000 1.000000 0.000000
-1.336071 -0.424285 -2.000604 -0.000000 0.000000 -1.000000 0.087704 0.642519
-1.336071 -0.157667 -2.000604 -0.000000 0.000000 -1.000000 0.885968 0.642519
1.336398 -0.157667 -2.000604 -0.000000 0.000000 -1.000000 0.885968 0.763616
1.336398 -0.424285 -2.000604 -0.000000 0.000000 -1.000000 0.087704 0.763616
-1.336071 -0.424285 -1.822009 0.000000 0.000000 1.000000 -0.006307 0.547247
1.336398 -0.424285 -1.822009 0.000000 0.000000 1.000000 0.993630 0.547247
1.336398 -0.157667 -1.822009 0.000000 0.000000 1.000000 0.993630 0.647005
-1.336071 -0.157667 -1.822009 0.000000 0.000000 1.000000 -0.006307 0.647005
1.336398 -0.157667 -2.000604 0.000000 1.000000 0.000000 1.004200 0.595050
-1.336071 -0.157667 -2.000604 0.000000 1.000000 0.000000 0.004251 0.595050
-1.336071 -0.157667 -1.822009 0.000000 1.000000 0.000000 0.004252 0.528226
1.336398 -0.157667 -1.822009 0.000000 1.000000 0.000000 1.004200 0.528226
1.336398 -0.424285 -2.000604 1.000000 0.000000 0.000000 0.086641 0.645706
1.336398 -0.157667 -2.000604 1.000000 0.000000 0.000000 0.884906 0.645706
1.336398 -0.157667 -1.822009 1.000000 0.000000 0.000000 0.884906 0.766804
1.336398 -0.424285 -1.822009 1.000000 0.000000 0.000000 0.086641 0.766804
-1.336071 -0.424285 -2.000604 0.000000 -1.000000 -0.000000 0.087704 0.642519
1.336398 -0.424285 -2.000604 0.000000 -1.000000 -0.000000 0.885968 0.642519
1.336398 -0.424285 -1.822009 0.000000 -1.000000 -0.000000 0.885968 0.763616
-1.336071 -0.424285 -1.822009 0.000000 -1.000000 -0.000000 0.087704 0.763616
-1.336071 -0.157667 -2.000604 -1.000000 0.000000 -0.000000 0.086641 0.645706
-1.336071 -0.424285 -2.000604 -1.000000 0.000000 -0.000000 0.884906 0.645706
-1.336071 -0.424285 -1.822009 -1.000000 0.000000 -0.000000 0.884906 0.766804
-1.336071 -0.157667 -1.822009 -1.000000 0.000000 -0.000000 0.086641 0.766804
-1.336071 0.408966 -2.000604 -0.000000 0.000000 -1.000000 0.099391 0.559197
-1.336071 0.675583 -2.000604 -0.000000 0.000000 -1.000000 0.897655 0.559197
1.336398 0.675583 -2.000604 -0.000000 0.000000 -1.000000 0.897655 0.526071
1.336398 0.408966 -2.000604 -0.000000 0.000000 -1.000000 0.099391 0.526071
-1.336071 0.408966 -1.822009 0.000000 0.000000 1.000000 0.099391 0.559197
1.336398 0.408966 -1.822009 0.000000 0.000000 1.000000 0.897655 0.559197
1.336398 0.675583 -1.822009 0.000000 0.000000 1.000000 0.897655 0.526071
-1.336071 0.675583 -1.822009 0.000000 0.000000 1.000000 0.099391 0.526071
1.336398 0.675583 -2.000604 0.000000 1.000000 0.000000 0.099391 0.559197
-1.336071 0.675583 -2.000604 0.000000 1.000000 0.000000 0.897655 0.559197
-1.336071 0.675583 -1.822009 0.000000 1.000000 0.000000 0.897655 0.526071
1.336398 0.675583 -1.822009 0.000000 1.000000 0.000000 0.099391 0.526071
1.336398 0.408966 -2.000604 1.000000 0.000000 0.000000 0.099391 0.559197
1.336398 0.675583 -2.000604 1.000000 0.000000 0.000000 0.897655 0.559197
1.336398 0.675583 -1.822009 1.000000 0.000000 0.000000 0.897655 0.526071
1.336398 0.408966 -1.822009 1.000000 0.000000 0.000000 0.099391 0.526071
-1.336071 0.408966 -2.000604 0.000000 -1.000000 -0.000000 0.099391 0.559197
1.336398 0.408966 -2.000604 0.000000 -1.000000 -0.000000 0.897655 0.559197
1.336398 0.408966 -1.822009 0.000000 -1.000000 -0.000000 0.897655 0.526071
-1.336071 0.408966 -1.822009 0.000000 -1.000000 -0.000000 0.099391 0.526071
-1.336071 0.675583 -2.000604 -1.000000 0.000000 -0.000000 0.099391 0.559197
-1.336071 0.408966 -2.000604 -1.000000 0.000000 -0.000000 0.897655 0.559197
-1.336071 0.408966 -1.822009 -1.000000 0.000000 -0.000000 0.897655 0.526071
-1.336071 0.675583 -1.822009 -1.000000 0.000000 -0.000000 0.099391 0.526071
-0.984692 -0.109603 -0.962993 0.000000 0.000000 1.000000 0.099391 0.596224
1.015308 -0.109603 -0.962993 0.000000 0.000000 1.000000 0.099391 0.778037
1.015308 0.356495 -0.962993 0.000000 0.000000 1.000000 0.897655 0.778037
-0.984692 0.356495 -0.962993 0.000000 0.000000 1.000000 0.897655 0.596224
-0.984692 -0.109603 -1.067598 -0.000000 0.000000 -1.000000 0.100454 0.563287
-0.984692 0.356495 -1.067598 -0.000000 0.000000 -1.000000 0.100454 0.745100
1.015308 0.356495 -1.067598 -0.000000 0.000000 -1.000000 0.898718 0.745100
1.015308 -0.109603 -1.067598 -0.000000 0.000000 -1.000000 0.898718 0.563287
1.015308 0.356495 -0.962993 -0.000000 1.000000 0.000000 0.099391 0.596224
1.015308 0.356495 -1.067598 -0.000000 1.000000 0.000000 0.099391 0.778037
-0.984692 0.356495 -1.067598 -0.000000 1.000000 0.000000 0.897655 0.778037
-0.984692 0.356495 -0.962993 -0.000000 1.000000 0.000000 0.897655 0.596224
1.015308 -0.109603 -0.962993 1.000000 0.000000 0.000000 0.100454 0.563287
1.015308 -0.109603 -1.067598 1.000000 0.000000 0.000000 0.100454 0.745100
1.015308 0.356495 -1.067598 1.000000 0.000000 0.000000 0.898718 0.745100
1.015308 0.356495 -0.962993 1.000000 0.000000 0.000000 0.898718 0.563287
-0.984692 -0.109603 -0.962993 -0.000000 -1.000000 0.000000 0.099391 0.596224
-0.984692 -0.109603 -1.067598 -0.000000 -1.000000 0.000000 0.099391 0.778037
1.015308 -0.109603 -1.067598 -0.000000 -1.000000 0.000000 0.897655 0.778037
1.015308 -0.109603 -0.962993 -0.000000 -1.000000 0.000000 0.897655 0.596224
-0.984692 0.356495 -0.962993 -1.000000 0.000000 0.000000 0.100454 0.563287
-0.984692 0.356495 -1.067598 -1.000000 0.000000 0.000000 0.100454 0.745100
-0.984692 -0.109603 -1.067598 -1.000000 0.000000 0.000000 0.898718 0.745100
-0.984692 -0.109603 -0.962993 -1.000000 0.000000 0.000000 0.898718 0.563287
0.000000 0.000000 0.000000 -0.000000 -1.000000 -0.000000 0.712780 0.201430
0.000000 -0.000000 1.000000 -0.000000 -1.000000 -0.000000 0.764000 0.356931
-0.195090 -0.000000 0.980785 -0.000000 -1.000000 -0.000000 0.730075 0.363145
-0.382683 -0.000000 0.923880 0.000000 -1.000000 -0.000000 0.695485 0.363145
-0.555570 -0.000000 0.831470 -0.000000 -1.000000 -0.000000 0.661560 0.356931
-0.707107 -0.000000 0.707107 0.000000 -1.000000 -0.000000 0.629603 0.344740
-0.831470 -0.000000 0.555570 -0.000000 -1.000000 -0.000000 0.600843 0.327042
-0.923880 -0.000000 0.382683 0.000000 -1.000000 -0.000000 0.576384 0.304518
-0.980785 -0.000000 0.195090 -0.000000 -1.000000 -0.000000 0.557167 0.278031
-1.000000 -0.000000 0.000000 0.000000 -1.000000 -0.000000 0.543930 0.248601
-0.980785 0.000000 -0.195090 0.000000 -1.000000 -0.000000 0.537182 0.217358
-0.923880 0.000000 -0.382683 0.000000 -1.000000 -0.000000 0.537182 0.185503
-0.831470 0.000000 -0.555570 -0.000000 -1.000000 -0.000000 0.543930 0.154260
-0.707107 0.000000 -0.707107 0.000000 -1.000000 -0.000000 0.557167 0.124829
-0.555570 0.000000 -0.831470 0.000000 -1.000000 -0.000000 0.576384 0.098343
-0.382683 0.000000 -0.923880 -0.000000 -1.000000 -0.000000 0.600843 0.075818
-0.195090 0.000000 -0.980785 0.000000 -1.000000 -0.000000 0.629603 0.058120
0.000000 0.000000 -1.000000 -0.000000 -1.000000 -0.000000 0.661560 0.045930
0.195091 0.000000 -0.980785 -0.000000 -1.000000 -0.000000 0.695485 0.039715
0.382684 0.000000 -0.923879 0.000000 -1.000000 -0.000000 0.730075 0.039715
0.555571 0.000000 -0.831469 0.000000 -1.000000 -0.000000 0.764000 0.045930
0.707107 0.000000 -0.707106 -0.000000 -1.000000 -0.000000 0.795956 0.058120
0.831470 0.000000 -0.555570 0.000000 -1.000000 -0.000000 0.824717 0.075818
0.923880 0.000000 -0.382683 0.000000 -1.000000 -0.000000 0.849175 0.098343
0.980785 0.000000 -0.195089 -0.000000 -1.000000 -0.000000 0.868392 0.124829
1.000000 -0.000000 0.000001 0.000000 -1.000000 -0.000000 0.881629 0.154260
0.980785 -0.000000 0.195091 0.000000 -1.000000 -0.000000 0.888377 0.185503
0.923879 -0.000000 0.382684 0.000000 -1.000000 -0.000000 0.888377 0.217358
0.831469 -0.000000 0.555571 -0.000000 -1.000000 -0.000000 0.881629 0.248601
0.707106 -0.000000 0.707108 0.000000 -1.000000 -0.000000 0.868392 0.278031
0.555569 -0.000000 0.831470 -0.000000 -1.000000 -0.000000 0.849175 0.304518
0.382682 -0.000000 0.923880 0.000000 -1.000000 -0.000000 0.824717 0.327043
0.195089 -0.000000 0.980786 -0.000000 -1.000000 -0.000000 0.795956 0.344740
0.000000 0.251409 0.000000 -0.000000 1.000000 0.000000 0.158698 0.158698
-0.195090 0.251409 0.980785 -0.000000 1.000000 0.000000 0.143076 0.000084
0.000000 0.251409 1.000000 -0.000000 1.000000 0.000000 0.174320 0.000084
-0.382683 0.251409 0.923880 -0.000000 1.000000 0.000000 0.112432 0.006179
-0.555570 0.251409 0.831470 -0.000000 1.000000 0.000000 0.083566 0.018136
-0.707107 0.251409 0.707107 0.000000 1.000000 0.000000 0.057587 0.035494
-0.831470 0.251409 0.555570 0.000000 1.000000 0.000000 0.035494 0.057587
-0.923880 0.251409 0.382683 0.000000 1.000000 0.000000 0.018136 0.083566
-0.980785 0.251409 0.195090 0.000000 1.000000 0.000000 0.006179 0.112432
-1.000000 0.251409 0.000000 0.000000 1.000000 0.000000 0.000084 0.143076
-0.980785 0.251409 -0.195090 0.000000 1.000000 0.000000 0.000084 0.174320
-0.923880 0.251409 -0.382683 -0.000000 1.000000 0.000000 0.006179 0.204964
-0.831470 0.251410 -0.555570 -0.000000 1.000000 0.000000 0.018136 0.233830
-0.707107 0.251410 -0.707107 -0.000000 1.000000 0.000000 0.035494 0.259809
-0.555570 0.251410 -0.831470 -0.000000 1.000000 0.000000 0.057587 0.281902
-0.382683 0.251410 -0.923880 0.000000 1.000000 0.000000 0.083566 0.299260
-0.195090 0.251410 -0.980785 0.000000 1.000000 0.000000 0.112432 0.311217
0.000000 0.251410 -1.000000 0.000000 1.000000 0.000000 0.143076 0.317313
0.195091 0.251410 -0.980785 -0.000000 1.000000 0.000000 0.174320 0.317313
0.382684 0.251410 -0.923879 -0.000000 1.000000 0.000000 0.204964 0.311217
0.555571 0.251410 -0.831469 -0.000000 1.000000 0.000000 0.233830 0.299261
0.707107 0.251410 -0.707106 0.000000 1.000000 0.000000 0.259809 0.281902
0.831470 0.251410 -0.555570 0.000000 1.000000 0.000000 0.281902 0.259809
0.923880 0.251409 -0.382683 0.000000 1.000000 0.000000 0.299260 0.233830
0.980785 0.251409 -0.195089 0.000000 1.000000 0.000000 0.311217 0.204964
1.000000 0.251409 0.000001 -0.000000 1.000000 0.000000 0.317313 0.174320
0.980785 0.251409 0.195091 -0.000000 1.000000 0.000000 0.317313 0.143076
0.923879 0.251409 0.382684 -0.000000 1.000000 0.000000 0.311217 0.112432
0.831469 0.251409 0.555571 -0.000000 1.000000 0.000000 0.299260 0.083566
0.707106 0.251409 0.707108 -0.000000 1.000000 0.000000 0.281902 0.057587
0.555569 0.251409 0.831470 -0.000000 1.000000 0.000000 0.259809 0.035494
0.382682 0.251409 0.923880 0.000000 1.000000 0.000000 0.233830 0.018136
0.195089 0.251409 0.980786 0.000000 1.000000 0.000000 0.204964 0.006179
0.923880 0.000000 -0.382683 0.956941 0.000000 -0.290284 0.843681 0.675237
0.923880 0.251409 -0.382683 0.956941 0.000000 -0.290284 0.843695 0.635166
0.980785 0.251409 -0.195089 0.956941 0.000000 -0.290284 0.874939 0.635177
0.980785 0.000000 -0.195089 0.956941 0.000000 -0.290284 0.874925 0.675247
-0.831470 0.000000 -0.555570 -0.773010 0.000000 -0.634393 0.499993 0.675118
-0.831470 0.251410 -0.555570 -0.773010 0.000000 -0.634393 0.500007 0.635048
-0.707107 0.251410 -0.707107 -0.773010 0.000000 -0.634393 0.531251 0.635059
-0.707107 0.000000 -0.707107 -0.773010 0.000000 -0.634393 0.531238 0.675129
0.831470 0.000000 -0.555570 0.881922 0.000000 -0.471396 0.812437 0.675226
0.831470 0.251410 -0.555570 0.881922 0.000000 -0.471396 0.812450 0.635156
0.923880 0.251409 -0.382683 0.881922 0.000000 -0.471396 0.843695 0.635166
0.923880 0.000000 -0.382683 0.881922 0.000000 -0.471396 0.843681 0.675237
-0.923880 0.000000 -0.382683 -0.881921 0.000000 -0.471396 0.468749 0.675107
-0.923880 0.251409 -0.382683 -0.881921 0.000000 -0.471396 0.468763 0.635037
-0.831470 0.251410 -0.555570 -0.881921 0.000000 -0.471396 0.500007 0.635048
-0.831470 0.000000 -0.555570 -0.881921 0.000000 -0.471396 0.499993 0.675118
0.195089 -0.000000 0.980786 0.098017 0.000000 0.995185 0.125061 0.674989
0.195089 0.251409 0.980786 0.098017 0.000000 0.995185 0.125075 0.634919
0.000000 0.251409 1.000000 0.098017 0.000000 0.995185 0.156319 0.634930
0.000000 -0.000000 1.000000 0.098017 0.000000 0.995185 0.156305 0.675000
0.707107 0.000000 -0.707106 0.773011 0.000000 -0.634393 0.781192 0.675215
0.707107 0.251410 -0.707106 0.773011 0.000000 -0.634393 0.781206 0.635145
0.831470 0.251410 -0.555570 0.773011 0.000000 -0.634393 0.812450 0.635156
0.831470 0.000000 -0.555570 0.773011 0.000000 -0.634393 0.812437 0.675226
-0.980785 0.000000 -0.195090 -0.956940 0.000000 -0.290285 0.437505 0.675096
-0.980785 0.251409 -0.195090 -0.956940 0.000000 -0.290285 0.437518 0.635026
-0.923880 0.251409 -0.382683 -0.956940 0.000000 -0.290285 0.468763 0.635037
-0.923880 0.000000 -0.382683 -0.956940 0.000000 -0.290285 0.468749 0.675107
0.382682 -0.000000 0.923880 0.290283 0.000000 0.956941 0.093817 0.674978
0.382682 0.251409 0.923880 0.290283 0.000000 0.956941 0.093831 0.634908
0.195089 0.251409 0.980786 0.290283 0.000000 0.956941 0.125075 0.634919
0.195089 -0.000000 0.980786 0.290283 0.000000 0.956941 0.125061 0.674989
0.555571 0.000000 -0.831469 0.634394 0.000000 -0.773010 0.749948 0.675204
0.555571 0.251410 -0.831469 0.634394 0.000000 -0.773010 0.749962 0.635134
0.707107 0.251410 -0.707106 0.634394 0.000000 -0.773010 0.781206 0.635145
0.707107 0.000000 -0.707106 0.634394 0.000000 -0.773010 0.781192 0.675215
-1.000000 -0.000000 0.000000 -0.995185 0.000000 -0.098017 0.406260 0.675086
-1.000000 0.251409 0.000000 -0.995185 0.000000 -0.098017 0.406274 0.635016
-0.980785 0.251409 -0.195090 -0.995185 0.000000 -0.098017 0.437518 0.635026
-0.980785 0.000000 -0.195090 -0.995185 0.000000 -0.098017 0.437505 0.675096
0.555569 -0.000000 0.831470 0.471395 0.000000 0.881922 0.062572 0.674968
0.555569 0.251409 0.831470 0.471395 0.000000 0.881922 0.062586 0.634897
0.382682 0.251409 0.923880 0.471395 0.000000 0.881922 0.093831 0.634908
0.382682 -0.000000 0.923880 0.471395 0.000000 0.881922 0.093817 0.674978
0.382684 0.000000 -0.923879 0.471397 0.000000 -0.881921 0.718704 0.675193
0.382684 0.251410 -0.923879 0.471397 0.000000 -0.881921 0.718718 0.635123
0.555571 0.251410 -0.831469 0.471397 0.000000 -0.881921 0.749962 0.635134
0.555571 0.000000 -0.831469 0.471397 0.000000 -0.881921 0.749948 0.675204
-0.980785 -0.000000 0.195090 -0.995185 0.000000 0.098017 0.375016 0.675075
-0.980785 0.251409 0.195090 -0.995185 0.000000 0.098017 0.375030 0.635005
-1.000000 0.251409 0.000000 -0.995185 0.000000 0.098017 0.406274 0.635016
-1.000000 -0.000000 0.000000 -0.995185 0.000000 0.098017 0.406260 0.675086
0.707106 -0.000000 0.707108 0.634392 0.000000 0.773011 0.031328 0.674957
0.707106 0.251409 0.707108 0.634392 0.000000 0.773011 0.031342 0.634887
0.555569 0.251409 0.831470 0.634392 0.000000 0.773011 0.062586 0.634897
0.555569 -0.000000 0.831470 0.634392 0.000000 0.773011 0.062572 0.674968
0.195091 0.000000 -0.980785 0.290285 0.000000 -0.956940 0.687459 0.675183
0.195091 0.251410 -0.980785 0.290285 0.000000 -0.956940 0.687473 0.635113
0.382684 0.251410 -0.923879 0.290285 0.000000 -0.956940 0.718718 0.635123
0.382684 0.000000 -0.923879 0.290285 0.000000 -0.956940 0.718704 0.675193
-0.923880 -0.000000 0.382683 -0.956940 0.000000 0.290285 0.343771 0.675064
-0.923880 0.251409 0.382683 -0.956940 0.000000 0.290285 0.343785 0.634994
-0.980785 0.251409 0.195090 -0.956940 0.000000 0.290285 0.375030 0.635005
-0.980785 -0.000000 0.195090 -0.956940 0.000000 0.290285 0.375016 0.675075
0.831469 -0.000000 0.555571 0.773010 0.000000 0.634394 0.000084 0.674946
0.831469 0.251409 0.555571 0.773010 0.000000 0.634394 0.000097 0.634876
0.707106 0.251409 0.707108 0.773010 0.000000 0.634394 0.031342 0.634887
0.707106 -0.000000 0.707108 0.773010 0.000000 0.634394 0.031328 0.674957
0.000000 0.000000 -1.000000 0.098017 0.000000 -0.995185 0.656215 0.675172
0.000000 0.251410 -1.000000 0.098017 0.000000 -0.995185 0.656229 0.635102
0.195091 0.251410 -0.980785 0.098017 0.000000 -0.995185 0.687473 0.635113
0.195091 0.000000 -0.980785 0.098017 0.000000 -0.995185 0.687459 0.675183
0.000000 -0.000000 1.000000 -0.098017 0.000000 0.995185 0.156305 0.675000
0.000000 0.251409 1.000000 -0.098017 0.000000 0.995185 0.156319 0.634930
-0.195090 0.251409 0.980785 -0.098017 0.000000 0.995185 0.187563 0.634940
-0.195090 -0.000000 0.980785 -0.098017 0.000000 0.995185 0.187550 0.675010
-0.831470 -0.000000 0.555570 -0.881921 0.000000 0.471397 0.312527 0.675053
-0.831470 0.251409 0.555570 -0.881921 0.000000 0.471397 0.312541 0.634983
-0.923880 0.251409 0.382683 -0.881921 0.000000 0.471397 0.343785 0.634994
-0.923880 -0.000000 0.382683 -0.881921 0.000000 0.471397 0.343771 0.675064
0.923879 -0.000000 0.382684 0.881921 0.000000 0.471398 0.968658 0.675280
0.923879 0.251409 0.382684 0.881921 0.000000 0.471398 0.968672 0.635210
0.831469 0.251409 0.555571 0.881921 0.000000 0.471398 0.999916 0.635220
0.831469 -0.000000 0.555571 0.881921 0.000000 0.471398 0.999903 0.675291
-0.707107 -0.000000 0.707107 -0.773010 0.000000 0.634393 0.281283 0.675043
-0.707107 0.251409 0.707107 -0.773010 0.000000 0.634393 0.281297 0.634973
-0.831470 0.251409 0.555570 -0.773010 0.000000 0.634393 0.312541 0.634983
-0.831470 -0.000000 0.555570 -0.773010 0.000000 0.634393 0.312527 0.675053
-0.195090 0.000000 -0.980785 -0.098017 0.000000 -0.995185 0.624971 0.675161
-0.195090 0.251410 -0.980785 -0.098017 0.000000 -0.995185 0.624985 0.635091
0.000000 0.251410 -1.000000 -0.098017 0.000000 -0.995185 0.656229 0.635102
0.000000 0.000000 -1.000000 -0.098017 0.000000 -0.995185 0.656215 0.675172
0.980785 -0.000000 0.195091 0.956940 0.000000 0.290286 0.937414 0.675269
0.980785 0.251409 0.195091 0.956940 0.000000 0.290286 0.937428 0.635199
0.923879 0.251409 0.382684 0.956940 0.000000 0.290286 0.968672 0.635210
0.923879 -0.000000 0.382684 0.956940 0.000000 0.290286 0.968658 0.675280
-0.555570 -0.000000 0.831470 -0.634393 0.000000 0.773010 0.250038 0.675032
-0.555570 0.251409 0.831470 -0.634393 0.000000 0.773010 0.250052 0.634962
-0.707107 0.251409 0.707107 -0.634393 0.000000 0.773010 0.281297 0.634973
-0.707107 -0.000000 0.707107 -0.634393 0.000000 0.773010 0.281283 0.675043
-0.382683 0.000000 -0.923880 -0.290284 0.000000 -0.956940 0.593726 0.675150
-0.382683 0.251410 -0.923880 -0.290284 0.000000 -0.956940 0.593740 0.635080
-0.195090 0.251410 -0.980785 -0.290284 0.000000 -0.956940 0.624985 0.635091
-0.195090 0.000000 -0.980785 -0.290284 0.000000 -0.956940 0.624971 0.675161
1.000000 -0.000000 0.000001 0.995185 0.000000 0.098018 0.906170 0.675258
1.000000 0.251409 0.000001 0.995185 0.000000 0.098018 0.906183 0.635188
0.980785 0.251409 0.195091 0.995185 0.000000 0.098018 0.937428 0.635199
0.980785 -0.000000 0.195091 0.995185 0.000000 0.098018 0.937414 0.675269
-0.382683 -0.000000 0.923880 -0.471397 0.000000 0.881921 0.218794 0.675021
-0.382683 0.251409 0.923880 -0.471397 0.000000 0.881921 0.218808 0.634951
-0.555570 0.251409 0.831470 -0.471397 0.000000 0.881921 0.250052 0.634962
-0.555570 -0.000000 0.831470 -0.471397 0.000000 0.881921 0.250038 0.675032
-0.555570 0.000000 -0.831470 -0.471397 0.000000 -0.881921 0.562482 0.675140
-0.555570 0.251410 -0.831470 -0.471397 0.000000 -0.881921 0.562496 0.635069
-0.382683 0.251410 -0.923880 -0.471397 0.000000 -0.881921 0.593740 0.635080
-0.382683 0.000000 -0.923880 -0.471397 0.000000 -0.881921 0.593726 0.675150
0.980785 0.000000 -0.195089 0.995185 0.000000 -0.098016 0.874925 0.675247
0.980785 0.251409 -0.195089 0.995185 0.000000 -0.098016 0.874939 0.635177
1.000000 0.251409 0.000001 0.995185 0.000000 -0.098016 0.906183 0.635188
1.000000 -0.000000 0.000001 0.995185 0.000000 -0.098016 0.906170 0.675258
-0.195090 -0.000000 0.980785 -0.290285 0.000000 0.956940 0.187550 0.675010
-0.195090 0.251409 0.980785 -0.290285 0.000000 0.956940 0.187563 0.634940
-0.382683 0.251409 0.923880 -0.290285 0.000000 0.956940 0.218808 0.634951
-0.382683 -0.000000 0.923880 -0.290285 0.000000 0.956940 0.218794 0.675021
-0.707107 0.000000 -0.707107 -0.634393 0.000000 -0.773010 0.531238 0.675129
-0.707107 0.251410 -0.707107 -0.634393 0.000000 -0.773010 0.531251 0.635059
-0.555570 0.251410 -0.831470 -0.634393 0.000000 -0.773010 0.562496 0.635069
-0.555570 0.000000 -0.831470 -0.634393 0.000000 -0.773010 0.562482 0.675140
4 0 1 2 3
4 4 5 6 7
4 8 9 10 11
4 12 13 14 15
4 16 17 18 19
4 20 21 22 23
4 24 25 26 27
4 28 29 30 31
4 32 33 34 35
4 36 37 38 39
4 40 41 42 43
4 44 45 46 47
4 48 49 50 51
4 52 53 54 55
4 56 57 58 59
4 60 61 62 63
4 64 65 66 67
4 68 69 70 71
4 72 73 74 75
4 76 77 78 79
4 80 81 82 83
4 84 85 86 87
4 88 89 90 91
4 92 93 94 95
4 96 97 98 99
4 100 101 102 103
4 104 105 106 107
4 108 109 110 111
4 112 113 114 115
4 116 117 118 119
4 120 121 122 123
4 124 125 126 127
4 128 129 130 131
4 132 133 134 135
4 136 137 138 139
4 140 141 142 143
4 144 145 146 147
4 148 149 150 151
4 152 153 154 155
4 156 157 158 159
4 160 161 162 163
4 164 165 166 167
3 168 169 170
3 168 170 171
3 168 171 172
3 168 172 173
3 168 173 174
3 168 174 175
3 168 175 176
3 168 176 177
3 168 177 178
3 168 178 179
3 168 179 180
3 168 180 181
3 168 181 182
3 168 182 183
3 168 183 184
3 168 184 185
3 168 185 186
3 168 186 187
3 168 187 188
3 168 188 189
3 168 189 190
3 168 190 191
3 168 191 192
3 168 192 193
3 168 193 194
3 168 194 195
3 168 195 196
3 168 196 197
3 168 197 198
3 168 198 199
3 168 199 200
3 168 200 169
3 201 202 203
3 201 204 202
3 201 205 204
3 201 206 205
3 201 207 206
3 201 208 207
3 201 209 208
3 201 210 209
3 201 211 210
3 201 212 211
3 201 213 212
3 201 214 213
3 201 215 214
3 201 216 215
3 201 217 216
3 201 218 217
3 201 219 218
3 201 220 219
3 201 221 220
3 201 222 221
3 201 223 222
3 201 224 223
3 201 225 224
3 201 226 225
3 201 227 226
3 201 228 227
3 201 229 228
3 201 230 229
3 201 231 230
3 201 232 231
3 201 233 232
3 201 203 233
4 234 235 236 237
4 238 239 240 241
4 242 243 244 245
4 246 247 248 249
4 250 251 252 253
4 254 255 256 257
4 258 259 260 261
4 262 263 264 265
4 266 267 268 269
4 270 271 272 273
4 274 275 276 277
4 278 279 280 281
4 282 283 284 285
4 286 287 288 289
4 290 291 292 293
4 294 295 296 297
4 298 299 300 301
4 302 303 304 305
4 306 307 308 309
4 310 311 312 313
4 314 315 316 317
4 318 319 320 321
4 322 323 324 325
4 326 327 328 329
4 330 331 332 333
4 334 335 336 337
4 338 339 340 341
4 342 343 344 345
4 346 347 348 349
4 350 351 352 353
4 354 355 356 357
4 358 359 360 361
