ply
format ascii 1.0
comment Created by Blender 2.73 (sub 0) - www.blender.org, source file: ''
element vertex 32
property float x
property float y
property float z
property float nx
property float ny
property float nz
property float s
property float t
element face 9
property list uchar uint vertex_indices
end_header
1.000000 1.000000 -1.000000 0.000000 0.000000 -1.000000 0.333059 0.666392
1.000000 -1.000000 -1.000000 0.000000 0.000000 -1.000000 0.000274 0.666392
-1.000000 -1.000000 -1.000000 0.000000 0.000000 -1.000000 0.000274 0.333608
-1.000000 1.000000 -1.000000 0.000000 0.000000 -1.000000 0.333059 0.333608
1.000000 0.999999 1.000000 0.000000 -0.000000 1.000000 0.333059 0.333059
-1.000000 1.000000 1.000000 0.000000 -0.000000 1.000000 0.000274 0.333059
-1.000000 -1.000000 1.000000 0.000000 -0.000000 1.000000 0.000274 0.000274
0.999999 -1.000001 1.000000 0.000000 -0.000000 1.000000 0.333059 0.000274
1.000000 1.000000 -1.000000 1.000000 -0.000000 0.000000 0.666392 0.333608
1.000000 0.999999 1.000000 1.000000 -0.000000 0.000000 0.666392 0.666392
0.999999 -1.000001 1.000000 1.000000 -0.000000 0.000000 0.333608 0.666392
1.000000 -1.000000 -1.000000 1.000000 -0.000000 0.000000 0.333608 0.333608
-1.000000 -1.000000 -1.000000 -1.000000 0.000000 -0.000000 0.000274 0.999726
-1.000000 -1.000000 1.000000 -1.000000 0.000000 -0.000000 0.000274 0.666941
-1.000000 1.000000 1.000000 -1.000000 0.000000 -0.000000 0.333059 0.666941
-1.000000 1.000000 -1.000000 -1.000000 0.000000 -0.000000 0.333059 0.999726
1.000000 0.999999 1.000000 0.000000 1.000000 0.000000 0.666392 0.000274
1.000000 1.000000 -1.000000 0.000000 1.000000 0.000000 0.666392 0.333059
-1.000000 1.000000 -1.000000 0.000000 1.000000 0.000000 0.333608 0.333059
-1.000000 1.000000 1.000000 0.000000 1.000000 0.000000 0.333608 0.000274
0.999999 -1.000001 1.000000 -0.000000 -0.760223 0.649662 0.999900 0.999900
-1.000000 -1.000000 1.000000 -0.000000 -0.760223 0.649662 0.000100 0.999900
-0.000000 -1.854569 0.000000 -0.000000 -0.760223 0.649662 0.500000 0.500000
-1.000000 -1.000000 1.000000 -0.649663 -0.760223 -0.000000 0.000100 0.999900
-1.000000 -1.000000 -1.000000 -0.649663 -0.760223 -0.000000 0.000100 0.000100
-0.000000 -1.854569 0.000000 -0.649663 -0.760223 -0.000000 0.500000 0.500000
1.000000 -1.000000 -1.000000 0.649662 -0.760223 -0.000000 0.999900 0.000100
0.999999 -1.000001 1.000000 0.649662 -0.760223 -0.000000 0.999900 0.999900
-0.000000 -1.854569 0.000000 0.649662 -0.760223 -0.000000 0.500000 0.500000
-1.000000 -1.000000 -1.000000 -0.000000 -0.760223 -0.649663 0.000100 0.000100
1.000000 -1.000000 -1.000000 -0.000000 -0.760223 -0.649663 0.999900 0.000100
-0.000000 -1.854569 0.000000 -0.000000 -0.760223 -0.649663 0.500000 0.500000
4 0 1 2 3
4 4 5 6 7
4 8 9 10 11
4 12 13 14 15
4 16 17 18 19
3 20 21 22
3 23 24 25
3 26 27 28
3 29 30 31
